<?xml version="1.0" encoding="UTF-8" standalone="no"?>
<!-- Created with Inkscape (http://www.inkscape.org/) -->

<svg
   width="16"
   height="16"
   viewBox="0 0 4.2333333 4.2333333"
   version="1.1"
   id="svg3520"
   inkscape:version="1.1 (c68e22c387, 2021-05-23)"
   inkscape:export-filename="C:\Users\user\Desktop\16.png"
   inkscape:export-xdpi="96"
   inkscape:export-ydpi="96"
   sodipodi:docname="leangth_measure.svg"
   xmlns:inkscape="http://www.inkscape.org/namespaces/inkscape"
   xmlns:sodipodi="http://sodipodi.sourceforge.net/DTD/sodipodi-0.dtd"
   xmlns="http://www.w3.org/2000/svg"
   xmlns:svg="http://www.w3.org/2000/svg">
  <sodipodi:namedview
     id="namedview3522"
     pagecolor="#ffffff"
     bordercolor="#666666"
     borderopacity="1.0"
     inkscape:pageshadow="2"
     inkscape:pageopacity="0.0"
     inkscape:pagecheckerboard="0"
     inkscape:document-units="mm"
     showgrid="false"
     units="px"
     inkscape:snap-global="false"
     inkscape:zoom="7.3539105"
     inkscape:cx="26.856459"
     inkscape:cy="30.391993"
     inkscape:window-width="1366"
     inkscape:window-height="705"
     inkscape:window-x="-8"
     inkscape:window-y="-8"
     inkscape:window-maximized="1"
     inkscape:current-layer="layer1" />
  <defs
     id="defs3517" />
  <g
     inkscape:label="Layer 1"
     inkscape:groupmode="layer"
     id="layer1">
    <g
       id="g1350"
       transform="matrix(0.19468427,0,0,0.19468427,-1.3134829,-0.70039626)"
       inkscape:export-filename="C:\Users\user\Desktop\48.png"
       inkscape:export-xdpi="96"
       inkscape:export-ydpi="96">
      <g
         id="g921"
         transform="matrix(0.05387198,0.05374876,-0.05374876,0.05387198,22.29332,4.0347703)">
        <g
           id="g866">
	<g
   id="g864">
		<path
   style="fill:#010002"
   d="M 41.717,0 0.002,41.722 161.823,203.543 203.542,161.824 Z m 0,8.049 153.78,153.776 -33.673,33.673 -4.452,-4.459 23.245,-23.255 c 0.92,-0.913 0.92,-2.391 0,-3.303 -0.913,-0.913 -2.391,-0.923 -3.303,0 l -23.255,23.245 -7.233,-7.226 14.974,-14.977 c 0.916,-0.913 0.916,-2.394 0,-3.307 -0.92,-0.923 -2.387,-0.923 -3.307,0 l -14.977,14.97 -5.973,-5.98 14.974,-14.967 c 0.905,-0.913 0.905,-2.405 0,-3.314 -0.923,-0.913 -2.405,-0.913 -3.321,0 l -14.967,14.967 -5.73,-5.726 14.97,-14.97 c 0.916,-0.913 0.916,-2.391 0,-3.303 -0.913,-0.923 -2.391,-0.923 -3.31,0 l -14.974,14.97 -6.471,-6.488 23.252,-23.245 c 0.913,-0.923 0.913,-2.405 0,-3.314 -0.923,-0.913 -2.398,-0.913 -3.314,0 l -23.248,23.255 -4.477,-4.481 15.729,-15.718 c 0.913,-0.913 0.913,-2.391 -0.011,-3.314 -0.909,-0.913 -2.387,-0.913 -3.303,0 l -15.725,15.729 -5.977,-5.98 15.722,-15.729 c 0.916,-0.913 0.916,-2.391 0,-3.303 -0.913,-0.923 -2.391,-0.923 -3.303,0 l -15.729,15.718 -5.726,-5.726 15.722,-15.718 c 0.916,-0.923 0.916,-2.401 0,-3.314 -0.916,-0.913 -2.398,-0.913 -3.31,0 L 89.291,122.953 82.745,116.407 106,93.147 c 0.913,-0.913 0.905,-2.391 -0.011,-3.303 -0.913,-0.913 -2.394,-0.913 -3.303,-0.011 l -23.255,23.259 -7.226,-7.229 14.967,-14.977 c 0.916,-0.913 0.916,-2.391 -0.011,-3.303 -0.902,-0.923 -2.384,-0.913 -3.296,0 L 68.891,102.55 62.907,96.57 77.884,81.603 c 0.905,-0.913 0.905,-2.401 0,-3.303 -0.916,-0.923 -2.394,-0.923 -3.307,-0.011 L 59.611,93.265 53.881,87.528 68.844,72.561 c 0.92,-0.913 0.913,-2.391 0,-3.314 -0.905,-0.909 -2.387,-0.909 -3.303,0 L 50.575,84.225 44.094,77.751 67.349,54.492 c 0.905,-0.913 0.905,-2.401 -0.004,-3.314 -0.916,-0.913 -2.398,-0.913 -3.314,0 L 40.786,74.433 36.316,69.956 52.034,54.238 c 0.913,-0.913 0.913,-2.391 0,-3.303 -0.916,-0.923 -2.394,-0.923 -3.314,0 L 32.999,66.653 27.026,60.676 42.744,44.958 c 0.916,-0.923 0.916,-2.401 0,-3.314 -0.913,-0.913 -2.391,-0.913 -3.31,0 L 23.722,57.362 17.985,51.636 33.707,35.907 c 0.916,-0.902 0.916,-2.384 0,-3.303 -0.916,-0.913 -2.394,-0.913 -3.307,0 L 14.672,48.332 8.055,41.704 Z"
   id="path862" />

	</g>

</g>
        <g
           id="g868">
</g>
        <g
           id="g870">
</g>
        <g
           id="g872">
</g>
        <g
           id="g874">
</g>
        <g
           id="g876">
</g>
        <g
           id="g878">
</g>
        <g
           id="g880">
</g>
        <g
           id="g882">
</g>
        <g
           id="g884">
</g>
        <g
           id="g886">
</g>
        <g
           id="g888">
</g>
        <g
           id="g890">
</g>
        <g
           id="g892">
</g>
        <g
           id="g894">
</g>
        <g
           id="g896">
</g>
      </g>
      <path
         id="path938"
         style="fill:none;stroke:#000000;stroke-width:0.529167px;stroke-linecap:round;stroke-linejoin:round"
         d="m 12.357637,12.015449 a 1.0583333,1.0583333 0 0 0 -1.058333,1.058333 v 9.260417 a 1.0583333,1.0583333 0 0 0 1.058333,1.058333 h 7.713225 V 12.064025 a 1.0583333,1.0583333 0 0 0 -0.304891,-0.04858 z" />
      <path
         id="rect940"
         style="fill:none;stroke:#37a849;stroke-width:0.529167px;stroke-linecap:round;stroke-linejoin:round"
         d="m 12.924196,14.806729 v 1.852083 h 5.820834 v -1.852083 z m 0,3.439583 h 5.55625 z m 0,1.322917 h 5.55625 z m 0,1.322916 h 3.439584 z" />
    </g>
  </g>
</svg>
